<svg width="48" height="47" viewBox="0 0 48 47" fill="none" xmlns="http://www.w3.org/2000/svg">
<path d="M33.9856 4.89992L28.5529 2.19629C28.144 1.94067 27.7156 1.72438 27.2678 1.55725H27.2483C24.3957 0.465967 20.7349 0.947705 16.7432 3.26791C7.67901 8.55719 0.347832 21.3675 0.37704 31.8772C0.386776 36.9699 2.12951 40.5878 4.95294 42.3771V42.3869L5.01136 42.4164C5.41053 42.6622 5.83892 42.8785 6.27704 43.0555L11.9434 45.9066L13.5498 42.908C14.6208 42.5344 15.7209 42.0232 16.86 41.3645C25.9242 36.085 33.2457 23.2649 33.2165 12.7454C33.2067 10.8479 32.9633 9.14707 32.5057 7.67236L33.9856 4.89992Z" fill="black" stroke="black" stroke-width="0.573923" stroke-miterlimit="10" stroke-linecap="round" stroke-linejoin="round"/>
<path d="M22.4317 6.12841C31.4959 0.848956 38.866 5.08628 38.8952 15.6059C38.9244 26.1254 31.603 38.9455 22.5388 44.225C13.4746 49.5143 6.09472 45.2671 6.06552 34.7475C6.03631 24.2181 13.3675 11.4079 22.4317 6.12841Z" fill="#DBDBDB" stroke="black" stroke-width="0.573923" stroke-miterlimit="10" stroke-linecap="round" stroke-linejoin="round"/>
<path d="M15.626 42.3873C12.0237 42.3873 9.86234 39.3003 9.84287 34.1388C9.81367 25.3299 16.2199 14.1516 23.814 9.7275C25.7904 8.57723 27.6986 7.96768 29.3343 7.96768C32.9366 7.96768 35.098 11.0449 35.1077 16.2064C35.1369 25.0153 28.7404 36.2034 21.1463 40.6275C19.1797 41.7778 17.2714 42.3873 15.626 42.3873Z" fill="white" stroke="black" stroke-width="0.573923" stroke-miterlimit="10" stroke-linecap="round" stroke-linejoin="round"/>
<mask id="mask0_1195_68239" style="mask-type:alpha" maskUnits="userSpaceOnUse" x="9" y="7" width="27" height="36">
<path d="M15.626 42.3872C12.0237 42.3872 9.86234 39.3001 9.84287 34.1386C9.81367 25.3297 16.2199 14.1515 23.814 9.72734C25.7904 8.57707 27.6986 7.96753 29.3343 7.96753C32.9366 7.96753 35.098 11.0447 35.1077 16.2062C35.1369 25.0151 28.7404 36.2032 21.1463 40.6273C19.1797 41.7776 17.2714 42.3872 15.626 42.3872Z" fill="white" stroke="black" stroke-width="0.573923" stroke-miterlimit="10" stroke-linecap="round" stroke-linejoin="round"/>
</mask>
<g mask="url(#mask0_1195_68239)">
<path opacity="0.08" d="M41.5035 26.3512L39.0988 25.1545C38.9178 25.0413 38.7282 24.9456 38.5299 24.8716H38.5213C37.2586 24.3886 35.6382 24.6018 33.8713 25.6288C29.8591 27.9701 26.6141 33.6404 26.627 38.2925C26.6313 40.5467 27.4027 42.1481 28.6525 42.9402V42.9445L28.6783 42.9576C28.855 43.0664 29.0446 43.1621 29.2386 43.2404L31.7467 44.5024L32.4578 43.1752C32.9318 43.0098 33.4188 42.7835 33.923 42.4919C37.9352 40.155 41.176 34.4803 41.1631 29.8239C41.1588 28.984 41.051 28.2312 40.8485 27.5784L41.5035 26.3512Z" fill="black" stroke="black" stroke-width="0.573923" stroke-miterlimit="10" stroke-linecap="round" stroke-linejoin="round"/>
</g>
<path d="M45.4566 25.472L43.0519 24.2753C42.8709 24.1621 42.6813 24.0664 42.4831 23.9924H42.4744C41.2118 23.5093 39.5914 23.7226 37.8245 24.7496C33.8123 27.0909 30.5672 32.7612 30.5801 37.4133C30.5844 39.6675 31.3558 41.2689 32.6056 42.0609V42.0653L32.6315 42.0784C32.8081 42.1872 32.9978 42.2829 33.1917 42.3612L35.6999 43.6232L36.4109 42.2959C36.885 42.1306 37.372 41.9043 37.8762 41.6127C41.8884 39.2758 45.1291 33.6011 45.1162 28.9447C45.1119 28.1048 45.0041 27.352 44.8016 26.6992L45.4566 25.472Z" fill="black" stroke="black" stroke-width="0.573923" stroke-miterlimit="10" stroke-linecap="round" stroke-linejoin="round"/>
<path d="M40.3401 26.0167C44.3523 23.6798 47.6146 25.5554 47.6275 30.2118C47.6404 34.8682 44.3997 40.5429 40.3875 42.8798C36.3753 45.221 33.1087 43.3411 33.0957 38.6847C33.0828 34.0239 36.3279 28.3536 40.3401 26.0167Z" fill="#F79E1B" stroke="black" stroke-width="0.573923" stroke-miterlimit="10" stroke-linecap="round" stroke-linejoin="round"/>
<path d="M37.3285 42.0655C35.7339 42.0655 34.7772 40.699 34.7686 38.4143C34.7557 34.5152 37.5913 29.5672 40.9528 27.6089C41.8276 27.0997 42.6723 26.8299 43.3963 26.8299C44.9908 26.8299 45.9475 28.192 45.9518 30.4767C45.9648 34.3759 43.1334 39.3282 39.772 41.2865C38.9014 41.7957 38.0568 42.0655 37.3285 42.0655Z" fill="white" stroke="black" stroke-width="0.573923" stroke-miterlimit="10" stroke-linecap="round" stroke-linejoin="round"/>
<path d="M22.7528 24.5398C25.5411 23.2251 27.5788 24.6477 27.3231 27.7343L27.2734 28.311L17.2034 33.0635L17.2531 32.4869C17.5089 29.4003 19.9753 25.8453 22.7528 24.5398Z" fill="#000002" stroke="black" stroke-width="0.573923" stroke-miterlimit="10" stroke-linecap="round" stroke-linejoin="round"/>
<path d="M23.3544 17.3146C24.6068 16.7212 25.5207 17.3621 25.4013 18.7482C25.2828 20.1241 24.1872 21.7098 22.9348 22.3031C21.6933 22.8873 20.7794 22.2463 20.8871 20.8797C21.0065 19.4936 22.1129 17.8987 23.3544 17.3146Z" fill="#000002" stroke="black" stroke-width="0.573923" stroke-miterlimit="10" stroke-linecap="round" stroke-linejoin="round"/>
<path d="M37.9277 36.1125L42.7893 32.7859" stroke="#161616" stroke-width="1.36801" stroke-linecap="round"/>
<path d="M40.5006 31.5072L40.2199 37.3912" stroke="#161616" stroke-width="1.36801" stroke-linecap="round"/>
</svg>
